<!-- Generated by IcoMoon.io -->
<svg version="1.1" xmlns="http://www.w3.org/2000/svg" width="512" height="512" viewBox="0 0 512 512">
<title></title>
<g id="icomoon-ignore">
</g>
<path d="M445.98 257.102c-9.043 0-17.674 1.76-25.532 4.928-5.253-57.179-55.145-102.030-116-102.030-14.893 0-29.341 2.815-42.159 7.582-4.98 1.851-6.289 3.76-6.289 7.458v201.357c0 3.883 3.12 7.117 7.062 7.498 0.168 0.017 181.768 0.105 182.945 0.105 36.452 0 65.993-28.408 65.993-63.447s-29.567-63.451-66.020-63.451zM200 384h16l8-112.11-8-111.89h-16l-8 111.89zM152 384h-16l-8-81.375 8-78.625h16l8 80zM72 384h16l8-64-8-64h-16l-8 64zM8 352h16l8-32-8-32h-16l-8 32z"></path>
</svg>
